<svg width="20" height="18" viewBox="0 0 20 18" fill="none" xmlns="http://www.w3.org/2000/svg">
<path fill-rule="evenodd" clip-rule="evenodd" d="M10.0001 0C10.3315 0 10.6494 0.131644 10.8838 0.365983L13.7501 3.23223V1.61598C13.7501 1.45022 13.8159 1.29125 13.9331 1.17404C14.0503 1.05683 14.2093 0.990983 14.3751 0.990983H15.6251C15.7908 0.990983 15.9498 1.05683 16.067 1.17404C16.1842 1.29125 16.2501 1.45022 16.2501 1.61598V5.73223L19.1926 8.67348C19.3099 8.79084 19.3758 8.95001 19.3758 9.11598C19.3758 9.28195 19.3099 9.44112 19.1926 9.55848C19.0752 9.67584 18.916 9.74177 18.7501 9.74177C18.5841 9.74177 18.4249 9.67584 18.3076 9.55848L10.0001 1.24973L1.69256 9.55848C1.63445 9.61659 1.56546 9.66269 1.48954 9.69414C1.41361 9.72559 1.33224 9.74177 1.25006 9.74177C1.08409 9.74177 0.924915 9.67584 0.807557 9.55848C0.749447 9.50037 0.703352 9.43139 0.671903 9.35546C0.640454 9.27954 0.624268 9.19816 0.624268 9.11598C0.624268 9.0338 0.640454 8.95243 0.671903 8.8765C0.703352 8.80058 0.749447 8.73159 0.807557 8.67348L9.11631 0.365983C9.35072 0.131644 9.6686 0 10.0001 0ZM17.5 10.1072L10 2.60724L2.5 10.1072V15.366C2.5 15.8633 2.69754 16.3402 3.04917 16.6918C3.40081 17.0434 3.87772 17.241 4.375 17.241H15.625C16.1223 17.241 16.5992 17.0434 16.9508 16.6918C17.3025 16.3402 17.5 15.8633 17.5 15.366V10.1072Z" fill="#50525E"/>
</svg>
