<svg width="18" height="14" viewBox="0 0 18 14" fill="none" xmlns="http://www.w3.org/2000/svg">
<path d="M9.53125 1.94159C10.2261 1.20953 11.4246 1.00021 12.8378 1.14259C14.1489 1.27434 15.4972 1.69828 16.4375 2.0914V12.6346C15.4621 12.2627 14.1988 11.8993 12.9451 11.774C11.7827 11.656 10.5247 11.7325 9.53125 12.2967V1.94159ZM9 0.981088C7.95344 0.0811501 6.43619 -0.0527249 5.05494 0.0854001C3.44631 0.247963 1.82281 0.7994 0.811313 1.25946C0.718502 1.30167 0.639799 1.3697 0.584597 1.45542C0.529396 1.54114 0.500028 1.64094 0.5 1.7429V13.4304C0.500025 13.5193 0.522352 13.6067 0.564937 13.6848C0.607522 13.7628 0.669003 13.8289 0.743749 13.877C0.818495 13.9251 0.904116 13.9537 0.99277 13.9601C1.08142 13.9665 1.17028 13.9506 1.25119 13.9138C2.18831 13.4888 3.69813 12.9778 5.16119 12.8301C6.65825 12.6792 7.91306 12.9225 8.58562 13.7619C8.6354 13.8239 8.69848 13.874 8.7702 13.9084C8.84192 13.9428 8.92045 13.9607 9 13.9607C9.07955 13.9607 9.15808 13.9428 9.2298 13.9084C9.30152 13.874 9.3646 13.8239 9.41438 13.7619C10.0869 12.9225 11.3418 12.6792 12.8378 12.8301C14.3019 12.9778 15.8127 13.4888 16.7488 13.9138C16.8297 13.9506 16.9186 13.9665 17.0072 13.9601C17.0959 13.9537 17.1815 13.9251 17.2563 13.877C17.331 13.8289 17.3925 13.7628 17.4351 13.6848C17.4776 13.6067 17.5 13.5193 17.5 13.4304V1.7429C17.5 1.64094 17.4706 1.54114 17.4154 1.45542C17.3602 1.3697 17.2815 1.30167 17.1887 1.25946C16.1772 0.7994 14.5537 0.247963 12.9451 0.0854001C11.5638 -0.0537874 10.0466 0.0811501 9 0.981088Z" fill="#50525E"/>
</svg>
