<svg width="20" height="16" viewBox="0 0 20 16" fill="none" xmlns="http://www.w3.org/2000/svg">
<path fill-rule="evenodd" clip-rule="evenodd" d="M1.57914 0.63147C1.16037 0.63147 0.758757 0.797825 0.462644 1.09394C0.16653 1.39005 0.000174675 1.79167 0.000174675 2.21044L0 3.26308C0 3.68185 0.166355 4.08347 0.462469 4.37958C0.758583 4.6757 1.1602 4.84205 1.57897 4.84205H3.6838C4.10257 4.84205 4.50418 4.6757 4.8003 4.37958C5.09641 4.08347 5.26277 3.68185 5.26277 3.26308L5.26294 2.21044C5.26294 1.79167 5.09659 1.39005 4.80047 1.09394C4.50436 0.797825 4.10274 0.63147 3.68397 0.63147H1.57914ZM6.31545 2.73676C6.31545 2.1784 6.53725 1.64291 6.93207 1.24809C7.32689 0.853276 7.86238 0.63147 8.42074 0.63147H17.8948C18.4531 0.63147 18.9886 0.853276 19.3834 1.24809C19.7783 1.64291 20.0001 2.1784 20.0001 2.73676V13.2632C20.0001 13.8216 19.7783 14.3571 19.3834 14.7519C18.9886 15.1467 18.4531 15.3685 17.8948 15.3685H8.42074C7.86238 15.3685 7.32689 15.1467 6.93207 14.7519C6.53725 14.3571 6.31545 13.8216 6.31545 13.2632V2.73676ZM7.67641 1.99243C7.479 2.18984 7.36809 2.45758 7.36809 2.73676V4.84205H7.36813V5.8947H7.36809V13.2632C7.36809 13.5424 7.479 13.8101 7.67641 14.0075C7.87382 14.205 8.14156 14.3159 8.42074 14.3159H17.8948C18.174 14.3159 18.4417 14.205 18.6391 14.0075C18.8365 13.8101 18.9474 13.5424 18.9474 13.2632V5.8947H18.9472V4.84205H18.9474V2.73676C18.9474 2.45758 18.8365 2.18984 18.6391 1.99243C18.4417 1.79502 18.174 1.68411 17.8948 1.68411H8.42074C8.14156 1.68411 7.87382 1.79502 7.67641 1.99243ZM8.94735 4.84205C8.65667 4.84205 8.42103 5.07769 8.42103 5.36837C8.42103 5.65905 8.65667 5.8947 8.94735 5.8947H15.2632C15.5539 5.8947 15.7895 5.65905 15.7895 5.36837C15.7895 5.07769 15.5539 4.84205 15.2632 4.84205H8.94735ZM8.42103 8.52631C8.42103 8.23563 8.65667 7.99999 8.94735 7.99999H17.3685C17.6592 7.99999 17.8948 8.23563 17.8948 8.52631C17.8948 8.81699 17.6592 9.05263 17.3685 9.05263H8.94735C8.65667 9.05263 8.42103 8.81699 8.42103 8.52631ZM8.94735 10.1053C8.65667 10.1053 8.42103 10.3409 8.42103 10.6316C8.42103 10.9223 8.65667 11.1579 8.94735 11.1579H17.3685C17.6592 11.1579 17.8948 10.9223 17.8948 10.6316C17.8948 10.3409 17.6592 10.1053 17.3685 10.1053H8.94735ZM1.57914 6.94734C1.16037 6.94734 0.758757 7.1137 0.462644 7.40981C0.16653 7.70592 0.000174675 8.10754 0.000174675 8.52631L0 9.57895C0 9.99772 0.166355 10.3993 0.462469 10.6955C0.758583 10.9916 1.1602 11.1579 1.57897 11.1579H3.6838C4.10257 11.1579 4.50418 10.9916 4.8003 10.6955C5.09641 10.3993 5.26277 9.99772 5.26277 9.57895L5.26294 8.52631C5.26294 8.10754 5.09659 7.70592 4.80047 7.40981C4.50436 7.1137 4.10274 6.94734 3.68397 6.94734H1.57914ZM8.42116 12.7369C8.42116 12.4462 8.6568 12.2106 8.94748 12.2106H12.1054C12.3961 12.2106 12.6317 12.4462 12.6317 12.7369C12.6317 13.0276 12.3961 13.2632 12.1054 13.2632H8.94748C8.6568 13.2632 8.42116 13.0276 8.42116 12.7369ZM8.94748 2.73676C8.6568 2.73676 8.42116 2.9724 8.42116 3.26308C8.42116 3.55376 8.6568 3.7894 8.94748 3.7894H17.3686C17.6593 3.7894 17.895 3.55376 17.895 3.26308C17.895 2.9724 17.6593 2.73676 17.3686 2.73676H8.94748Z" fill="#50525E"/>
</svg>
