<svg width="20" height="10" viewBox="0 0 20 10" fill="none" xmlns="http://www.w3.org/2000/svg">
<path d="M15 0.390629C14.1304 0.390088 13.2783 0.635742 12.5424 1.09918C11.8065 1.56262 11.2168 2.22491 10.8415 3.00946C10.4662 3.79401 10.3207 4.66877 10.4217 5.53256C10.5228 6.39635 10.8663 7.21389 11.4125 7.89063H8.58755C9.24305 7.07645 9.60236 6.06365 9.60653 5.0184C9.61071 3.97315 9.25949 2.95752 8.61051 2.13813C7.96153 1.31875 7.05332 0.744272 6.03489 0.508955C5.01646 0.273639 3.9483 0.391456 3.00564 0.843078C2.06298 1.2947 1.30181 2.05331 0.847011 2.99444C0.392212 3.93557 0.270793 5.00333 0.502674 6.02255C0.734554 7.04176 1.30596 7.9519 2.12316 8.60364C2.94035 9.25539 3.95479 9.61003 5.00005 9.60938H15C16.2225 9.60938 17.3949 9.12375 18.2594 8.25932C19.1238 7.3949 19.6094 6.22249 19.6094 5C19.6094 3.77752 19.1238 2.60511 18.2594 1.74068C17.3949 0.876258 16.2225 0.390629 15 0.390629ZM2.10942 5C2.10942 4.42829 2.27896 3.86942 2.59658 3.39406C2.91421 2.9187 3.36566 2.5482 3.89386 2.32941C4.42205 2.11063 5.00326 2.05339 5.56398 2.16492C6.12471 2.27646 6.63977 2.55176 7.04403 2.95602C7.44829 3.36028 7.7236 3.87534 7.83513 4.43607C7.94667 4.9968 7.88942 5.57801 7.67064 6.1062C7.45185 6.63439 7.08136 7.08584 6.60599 7.40347C6.13063 7.7211 5.57176 7.89063 5.00005 7.89063C4.23369 7.8897 3.49899 7.58485 2.9571 7.04296C2.4152 6.50106 2.11035 5.76636 2.10942 5ZM15 7.89063C14.4283 7.89063 13.8695 7.7211 13.3941 7.40347C12.9187 7.08584 12.5482 6.63439 12.3295 6.1062C12.1107 5.57801 12.0534 4.9968 12.165 4.43607C12.2765 3.87534 12.5518 3.36028 12.9561 2.95602C13.3603 2.55176 13.8754 2.27646 14.4361 2.16492C14.9968 2.05339 15.5781 2.11063 16.1062 2.32941C16.6344 2.5482 17.0859 2.9187 17.4035 3.39406C17.7211 3.86942 17.8907 4.42829 17.8907 5C17.8897 5.76636 17.5849 6.50106 17.043 7.04296C16.5011 7.58485 15.7664 7.8897 15 7.89063Z" fill="#50525E"/>
</svg>
